<svg xmlns="http://www.w3.org/2000/svg" width="512" height="512" viewBox="0 0 512 512" role="img" aria-label="PharmaSaaS">
  <defs>
    <linearGradient id="g" x1="0" y1="0" x2="1" y2="1">
      <stop offset="0" stop-color="#10b981"/>
      <stop offset="1" stop-color="#059669"/>
    </linearGradient>
  </defs>
  <rect width="512" height="512" rx="112" fill="url(#g)"/>
  <g fill="#ffffff">
    <path d="M256 128c-70.7 0-128 57.3-128 128s57.3 128 128 128 128-57.3 128-128-57.3-128-128-128Zm0 48c44.2 0 80 35.8 80 80s-35.8 80-80 80-80-35.8-80-80 35.8-80 80-80Z" opacity="0.2"/>
    <path d="M232 196a20 20 0 0 1 40 0v40h40a20 20 0 1 1 0 40h-40v40a20 20 0 1 1-40 0v-40h-40a20 20 0 1 1 0-40h40v-40Z"/>
  </g>
</svg>
